<?xml version="1.0" encoding="UTF-8" standalone="no"?>
<svg
   xmlns:dc="http://purl.org/dc/elements/1.1/"
   xmlns:cc="http://creativecommons.org/ns#"
   xmlns:rdf="http://www.w3.org/1999/02/22-rdf-syntax-ns#"
   xmlns:svg="http://www.w3.org/2000/svg"
   xmlns="http://www.w3.org/2000/svg"
   xmlns:xlink="http://www.w3.org/1999/xlink"
   xml:space="preserve"
   height="496"
   width="1920"
   style="enable-background:new 0 0 1920 496;"
   viewBox="0 0 1920 496"
   y="0px"
   x="0px"
   id="Layer_1"
   version="1.1"><metadata
     id="metadata72"><rdf:RDF><cc:Work
         rdf:about=""><dc:format>image/svg+xml</dc:format><dc:type
           rdf:resource="http://purl.org/dc/dcmitype/StillImage" /><dc:title></dc:title></cc:Work></rdf:RDF></metadata><defs
     id="defs70"><linearGradient
       id="linearGradient4679"><stop
         style="stop-color:#981c80;stop-opacity:1;"
         offset="0"
         id="stop4675" /><stop
         style="stop-color:#c52c64;stop-opacity:1"
         offset="1"
         id="stop4677" /></linearGradient><linearGradient
       id="linearGradient4671"><stop
         id="stop4667"
         offset="0"
         style="stop-color:#981c80;stop-opacity:1;" /><stop
         id="stop4669"
         offset="1"
         style="stop-color:#981c80;stop-opacity:1" /></linearGradient><defs
       id="defs37"><rect
         id="SVGID_7_"
         y="0.2"
         width="1920"
         height="495.8" /></defs><clipPath
       id="SVGID_8_"><use
         xlink:href="#SVGID_7_"
         style="overflow:visible;"
         id="use39" /></clipPath><defs
       id="defs20"><path
         id="SVGID_4_"
         d="M1328.3,218.1c-140.3,0-288.6,15.2-444.9,48.6C718.2,302.1,558,349.7,398,390.5    c-184.6,47-307.3,30.4-398-13.6v11.4c123.1,66.8,273,87,437.9,47c322.8-78.3,643.7-149.8,963.8-138.5    c177.1,3.1,351.7,36.5,518.3,95.8v-77.7C1741.7,254.2,1544.5,218.1,1328.3,218.1C1328.3,218.1,1328.3,218.1,1328.3,218.1" /></defs><clipPath
       id="SVGID_5_"><use
         xlink:href="#SVGID_4_"
         style="overflow:visible;"
         id="use22" /></clipPath><linearGradient
       id="SVGID_6_"
       gradientUnits="userSpaceOnUse"
       x1="1.049"
       y1="1080.345"
       x2="2.049"
       y2="1080.345"
       gradientTransform="matrix(2899.7961,-758.0433,758.0433,2899.7961,-822143.81,-3131347)"><stop
         offset="0"
         style="stop-color:#FFDC00"
         id="stop25" /><stop
         offset="0.4808"
         style="stop-color:#F29100"
         id="stop27" /><stop
         offset="1"
         style="stop-color:#941B80"
         id="stop29" /></linearGradient><defs
       id="defs5"><path
         id="SVGID_1_"
         d="M0,0.2v385.2c106.7,58.1,232.2,82.8,361.1,61.7C766.9,334.7,1289,133.3,1920,375V0.2H0z" /></defs><clipPath
       id="SVGID_2_"><use
         xlink:href="#SVGID_1_"
         style="overflow:visible;"
         id="use7" /></clipPath><linearGradient
       id="SVGID_3_"
       gradientUnits="userSpaceOnUse"
       x1="1.0259"
       y1="1080.4"
       x2="1.5493308"
       y2="1080.3723"
       gradientTransform="matrix(3092.8896,-437.4301,437.4301,3092.8896,-476010.22,-3340705.5)"><stop
         offset="0"
         style="stop-color:#7662a8;stop-opacity:1"
         id="stop10" /><stop
         offset="1"
         style="stop-color:#00a4e4;stop-opacity:1"
         id="stop12" /></linearGradient><linearGradient
       gradientUnits="userSpaceOnUse"
       y2="336.93132"
       x2="1920"
       y1="336.93132"
       x1="0"
       id="linearGradient4673"
       xlink:href="#linearGradient4679" /></defs><style
     id="style2"
     type="text/css">
	.st0{clip-path:url(#SVGID_2_);fill:url(#SVGID_3_);}
	.st1{clip-path:url(#SVGID_5_);fill:url(#SVGID_6_);}
	.st2{clip-path:url(#SVGID_8_);}
	.st3{clip-path:url(#SVGID_10_);}
	.st4{clip-path:url(#SVGID_12_);fill:url(#SVGID_13_);}
</style><g
     id="g4709"><polygon
       style="fill:url(#SVGID_3_)"
       id="polygon15"
       clip-path="url(#SVGID_2_)"
       points="1882.3,-266.1 -64.9,9.3 37.7,734.4 1984.9,459 "
       class="st0" /><polygon
       style="fill:url(#linearGradient4673);fill-opacity:1"
       id="polygon32"
       clip-path="url(#SVGID_5_)"
       points="1797.2,-251.7 -62.9,234.6 122.8,945.1 1982.9,458.8 "
       class="st1" /><g
       id="g63"
       clip-path="url(#SVGID_8_)"
       class="st2"><defs
         id="defs43"><path
           d="M 2430.9,428.6 C 2258.5,225 2151.3,45.5 2007,-108.4 1368.1,-789.5 920.7,-997.5 452.7,-875.2 c -408.1,106.7 -837,711 -711.6,977.1 -26,-335 107.9,-555.3 455.8,-646.2 488.2,-127.6 1192.5,0.7 2234,972.9"
           id="SVGID_9_" /></defs><clipPath
         id="SVGID_10_"><use
           height="100%"
           width="100%"
           y="0"
           x="0"
           id="use45"
           style="overflow:visible"
           xlink:href="#SVGID_9_" /></clipPath><g
         id="g61"
         clip-path="url(#SVGID_10_)"
         class="st3"><defs
           id="defs49"><rect
             height="1673.6"
             width="2573.7"
             transform="matrix(0.9675,-0.2529,0.2529,0.9675,45.7286,244.598)"
             y="-892.40002"
             x="-312.60001"
             id="SVGID_11_" /></defs><clipPath
           id="SVGID_12_"><use
             height="100%"
             width="100%"
             y="0"
             x="0"
             id="use51"
             style="overflow:visible"
             xlink:href="#SVGID_11_" /></clipPath><linearGradient
           gradientTransform="matrix(2445.9678,-639.4067,639.4067,2445.9678,-693655.69,-2641787.2)"
           y2="1080.4403"
           x2="2.0581"
           y1="1080.4403"
           x1="1.0581"
           gradientUnits="userSpaceOnUse"
           id="SVGID_13_"
           xlink:href="#linearGradient4671"><stop
             id="stop54"
             style="stop-color:#006E9F"
             offset="0" /><stop
             id="stop56"
             style="stop-color:#164193"
             offset="1" /></linearGradient><polygon
           style="fill:url(#SVGID_13_);fill-opacity:1.0"
           id="polygon59"
           clip-path="url(#SVGID_12_)"
           points="2244.6,-1903.5 -1037.9,-1045.4 -296.1,1792.4 2986.4,934.3 "
           class="st4" /></g></g></g></svg>