<?xml version="1.0" encoding="utf-8"?>
<!-- Generator: Adobe Illustrator 21.1.0, SVG Export Plug-In . SVG Version: 6.00 Build 0)  -->
<svg version="1.1" id="Layer_1" xmlns="http://www.w3.org/2000/svg" xmlns:xlink="http://www.w3.org/1999/xlink" x="0px" y="0px"
	 viewBox="0 0 1920 496" style="enable-background:new 0 0 1920 496;" width="1920" height="496" xml:space="preserve">
<style type="text/css">
	.st0{clip-path:url(#SVGID_2_);fill:url(#SVGID_3_);}
	.st1{clip-path:url(#SVGID_5_);fill:url(#SVGID_6_);}
	.st2{clip-path:url(#SVGID_8_);}
	.st3{clip-path:url(#SVGID_10_);}
	.st4{clip-path:url(#SVGID_12_);fill:url(#SVGID_13_);}
</style>
<g>
	<defs>
		<path id="SVGID_1_" d="M0,0.2v385.2c106.7,58.1,232.2,82.8,361.1,61.7C766.9,334.7,1289,133.3,1920,375V0.2H0z"/>
	</defs>
	<clipPath id="SVGID_2_">
		<use xlink:href="#SVGID_1_"  style="overflow:visible;"/>
	</clipPath>
	
		<linearGradient id="SVGID_3_" gradientUnits="userSpaceOnUse" x1="1.0259" y1="1080.4" x2="2.0259" y2="1080.4" gradientTransform="matrix(3092.8896 -437.4301 437.4301 3092.8896 -476010.2188 -3340705.5)">
		<stop  offset="0" style="stop-color:#00A6E6"/>
		<stop  offset="1" style="stop-color:#312782"/>
	</linearGradient>
	<polygon class="st0" points="37.7,734.4 1984.9,459 1882.3,-266.1 -64.9,9.3 	"/>
</g>
<g>
	<defs>
		<path id="SVGID_4_" d="M1328.3,218.1c-140.3,0-288.6,15.2-444.9,48.6C718.2,302.1,558,349.7,398,390.5
			c-184.6,47-307.3,30.4-398-13.6v11.4c123.1,66.8,273,87,437.9,47c322.8-78.3,643.7-149.8,963.8-138.5
			c177.1,3.1,351.7,36.5,518.3,95.8v-77.7C1741.7,254.2,1544.5,218.1,1328.3,218.1C1328.3,218.1,1328.3,218.1,1328.3,218.1"/>
	</defs>
	<clipPath id="SVGID_5_">
		<use xlink:href="#SVGID_4_"  style="overflow:visible;"/>
	</clipPath>
	
		<linearGradient id="SVGID_6_" gradientUnits="userSpaceOnUse" x1="1.049" y1="1080.345" x2="2.049" y2="1080.345" gradientTransform="matrix(2899.7961 -758.0433 758.0433 2899.7961 -822143.8125 -3131347)">
		<stop  offset="0" style="stop-color:#FFDC00"/>
		<stop  offset="0.4808" style="stop-color:#F29100"/>
		<stop  offset="1" style="stop-color:#941B80"/>
	</linearGradient>
	<polygon class="st1" points="122.8,945.1 1982.9,458.8 1797.2,-251.7 -62.9,234.6 	"/>
</g>
<g>
	<defs>
		<rect id="SVGID_7_" y="0.2" width="1920" height="495.8"/>
	</defs>
	<clipPath id="SVGID_8_">
		<use xlink:href="#SVGID_7_"  style="overflow:visible;"/>
	</clipPath>
	<g class="st2">
		<defs>
			<path id="SVGID_9_" d="M2430.9,428.6C2258.5,225,2151.3,45.5,2007-108.4C1368.1-789.5,920.7-997.5,452.7-875.2
				c-408.1,106.7-837,711-711.6,977.1c-26-335,107.9-555.3,455.8-646.2C685.1-671.9,1389.4-543.6,2430.9,428.6"/>
		</defs>
		<clipPath id="SVGID_10_">
			<use xlink:href="#SVGID_9_"  style="overflow:visible;"/>
		</clipPath>
		<g class="st3">
			<defs>
				
					<rect id="SVGID_11_" x="-312.6" y="-892.4" transform="matrix(0.9675 -0.2529 0.2529 0.9675 45.7286 244.598)" width="2573.7" height="1673.6"/>
			</defs>
			<clipPath id="SVGID_12_">
				<use xlink:href="#SVGID_11_"  style="overflow:visible;"/>
			</clipPath>
			
				<linearGradient id="SVGID_13_" gradientUnits="userSpaceOnUse" x1="1.0581" y1="1080.4403" x2="2.0581" y2="1080.4403" gradientTransform="matrix(2445.9678 -639.4067 639.4067 2445.9678 -693655.6875 -2641787.25)">
				<stop  offset="0" style="stop-color:#006E9F"/>
				<stop  offset="1" style="stop-color:#164193"/>
			</linearGradient>
			<polygon class="st4" points="-296.1,1792.4 2986.4,934.3 2244.6,-1903.5 -1037.9,-1045.4 			"/>
		</g>
	</g>
</g>
</svg>
