<?xml version="1.0" encoding="UTF-8" standalone="no"?>
<svg
   xmlns:dc="http://purl.org/dc/elements/1.1/"
   xmlns:cc="http://creativecommons.org/ns#"
   xmlns:rdf="http://www.w3.org/1999/02/22-rdf-syntax-ns#"
   xmlns:svg="http://www.w3.org/2000/svg"
   xmlns="http://www.w3.org/2000/svg"
   xmlns:xlink="http://www.w3.org/1999/xlink"
   version="1.1"
   id="Layer_1"
   x="0px"
   y="0px"
   viewBox="0 0 1920 496"
   style="enable-background:new 0 0 1920 496;"
   width="1920"
   height="496"
   xml:space="preserve"><metadata
     id="metadata72"><rdf:RDF><cc:Work
         rdf:about=""><dc:format>image/svg+xml</dc:format><dc:type
           rdf:resource="http://purl.org/dc/dcmitype/StillImage" /><dc:title></dc:title></cc:Work></rdf:RDF></metadata><defs
     id="defs70"><linearGradient
       id="linearGradient4679"><stop
         id="stop4675"
         offset="0"
         style="stop-color:#d16b56;stop-opacity:1" /><stop
         id="stop4677"
         offset="1"
         style="stop-color:#ffcd00;stop-opacity:1" /></linearGradient><linearGradient
       id="linearGradient4671"><stop
         style="stop-color:#981c80;stop-opacity:1;"
         offset="0"
         id="stop4667" /><stop
         style="stop-color:#981c80;stop-opacity:1"
         offset="1"
         id="stop4669" /></linearGradient><defs
       id="defs37"><rect
         height="495.8"
         width="1920"
         y="0.2"
         id="SVGID_7_" /></defs><clipPath
       id="SVGID_8_"><use
         id="use39"
         style="overflow:visible;"
         xlink:href="#SVGID_7_" /></clipPath><defs
       id="defs20"><path
         d="M1328.3,218.1c-140.3,0-288.6,15.2-444.9,48.6C718.2,302.1,558,349.7,398,390.5    c-184.6,47-307.3,30.4-398-13.6v11.4c123.1,66.8,273,87,437.9,47c322.8-78.3,643.7-149.8,963.8-138.5    c177.1,3.1,351.7,36.5,518.3,95.8v-77.7C1741.7,254.2,1544.5,218.1,1328.3,218.1C1328.3,218.1,1328.3,218.1,1328.3,218.1"
         id="SVGID_4_" /></defs><clipPath
       id="SVGID_5_"><use
         id="use22"
         style="overflow:visible;"
         xlink:href="#SVGID_4_" /></clipPath><linearGradient
       gradientTransform="matrix(2899.7961,-758.0433,758.0433,2899.7961,-822143.81,-3131347)"
       y2="1080.345"
       x2="2.049"
       y1="1080.345"
       x1="1.049"
       gradientUnits="userSpaceOnUse"
       id="SVGID_6_"><stop
         id="stop25"
         style="stop-color:#FFDC00"
         offset="0" /><stop
         id="stop27"
         style="stop-color:#F29100"
         offset="0.4808" /><stop
         id="stop29"
         style="stop-color:#941B80"
         offset="1" /></linearGradient><defs
       id="defs5"><path
         d="M0,0.2v385.2c106.7,58.1,232.2,82.8,361.1,61.7C766.9,334.7,1289,133.3,1920,375V0.2H0z"
         id="SVGID_1_" /></defs><clipPath
       id="SVGID_2_"><use
         id="use7"
         style="overflow:visible;"
         xlink:href="#SVGID_1_" /></clipPath><linearGradient
       gradientTransform="matrix(3092.8896,-437.4301,437.4301,3092.8896,-476010.22,-3340705.5)"
       y2="1080.3536"
       x2="1.9357886"
       y1="1080.4"
       x1="1.0259"
       gradientUnits="userSpaceOnUse"
       id="SVGID_3_"><stop
         id="stop10"
         style="stop-color:#f9ae00;stop-opacity:1"
         offset="0" /><stop
         id="stop12"
         style="stop-color:#ffda00;stop-opacity:1"
         offset="1" /></linearGradient><linearGradient
       xlink:href="#linearGradient4679"
       id="linearGradient4673"
       x1="0"
       y1="336.93132"
       x2="2211.6636"
       y2="379.55194"
       gradientUnits="userSpaceOnUse" /></defs><style
     type="text/css"
     id="style2">
	.st0{clip-path:url(#SVGID_2_);fill:url(#SVGID_3_);}
	.st1{clip-path:url(#SVGID_5_);fill:url(#SVGID_6_);}
	.st2{clip-path:url(#SVGID_8_);}
	.st3{clip-path:url(#SVGID_10_);}
	.st4{clip-path:url(#SVGID_12_);fill:url(#SVGID_13_);}
</style><g
     id="g4587"><polygon
       class="st0"
       points="1882.3,-266.1 -64.9,9.3 37.7,734.4 1984.9,459 "
       clip-path="url(#SVGID_2_)"
       id="polygon15"
       style="fill:url(#SVGID_3_)" /><polygon
       class="st1"
       points="1797.2,-251.7 -62.9,234.6 122.8,945.1 1982.9,458.8 "
       clip-path="url(#SVGID_5_)"
       id="polygon32"
       style="fill:url(#linearGradient4673);fill-opacity:1" /><g
       class="st2"
       clip-path="url(#SVGID_8_)"
       id="g63"><defs
         id="defs43"><path
           id="SVGID_9_"
           d="M 2430.9,428.6 C 2258.5,225 2151.3,45.5 2007,-108.4 1368.1,-789.5 920.7,-997.5 452.7,-875.2 c -408.1,106.7 -837,711 -711.6,977.1 -26,-335 107.9,-555.3 455.8,-646.2 488.2,-127.6 1192.5,0.7 2234,972.9" /></defs><clipPath
         id="SVGID_10_"><use
           xlink:href="#SVGID_9_"
           style="overflow:visible"
           id="use45"
           x="0"
           y="0"
           width="100%"
           height="100%" /></clipPath><g
         class="st3"
         clip-path="url(#SVGID_10_)"
         id="g61"><defs
           id="defs49"><rect
             id="SVGID_11_"
             x="-312.60001"
             y="-892.40002"
             transform="matrix(0.9675,-0.2529,0.2529,0.9675,45.7286,244.598)"
             width="2573.7"
             height="1673.6" /></defs><clipPath
           id="SVGID_12_"><use
             xlink:href="#SVGID_11_"
             style="overflow:visible"
             id="use51"
             x="0"
             y="0"
             width="100%"
             height="100%" /></clipPath><linearGradient
           xlink:href="#linearGradient4671"
           id="SVGID_13_"
           gradientUnits="userSpaceOnUse"
           x1="1.0581"
           y1="1080.4403"
           x2="2.0581"
           y2="1080.4403"
           gradientTransform="matrix(2445.9678,-639.4067,639.4067,2445.9678,-693655.69,-2641787.2)"><stop
             offset="0"
             style="stop-color:#006E9F"
             id="stop54" /><stop
             offset="1"
             style="stop-color:#164193"
             id="stop56" /></linearGradient><polygon
           class="st4"
           points="2244.6,-1903.5 -1037.9,-1045.4 -296.1,1792.4 2986.4,934.3 "
           clip-path="url(#SVGID_12_)"
           id="polygon59"
           style="fill:url(#SVGID_13_);fill-opacity:1" /></g></g></g></svg>