<?xml version="1.0" encoding="UTF-8" standalone="no"?>
<svg
   xmlns:sketch="http://www.bohemiancoding.com/sketch/ns"
   xmlns:dc="http://purl.org/dc/elements/1.1/"
   xmlns:cc="http://creativecommons.org/ns#"
   xmlns:rdf="http://www.w3.org/1999/02/22-rdf-syntax-ns#"
   xmlns:svg="http://www.w3.org/2000/svg"
   xmlns="http://www.w3.org/2000/svg"
   xmlns:sodipodi="http://sodipodi.sourceforge.net/DTD/sodipodi-0.dtd"
   xmlns:inkscape="http://www.inkscape.org/namespaces/inkscape"
   width="24px"
   height="25px"
   viewBox="0 0 24 25"
   version="1.1"
   id="svg11"
   sodipodi:docname="magnifying-glass.svg"
   inkscape:version="0.92.1 r">
  <metadata
     id="metadata15">
    <rdf:RDF>
      <cc:Work
         rdf:about="">
        <dc:format>image/svg+xml</dc:format>
        <dc:type
           rdf:resource="http://purl.org/dc/dcmitype/StillImage" />
        <dc:title>Shape</dc:title>
      </cc:Work>
    </rdf:RDF>
  </metadata>
  <sodipodi:namedview
     pagecolor="#ffffff"
     bordercolor="#666666"
     borderopacity="1"
     objecttolerance="10"
     gridtolerance="10"
     guidetolerance="10"
     inkscape:pageopacity="0"
     inkscape:pageshadow="2"
     inkscape:window-width="1366"
     inkscape:window-height="704"
     id="namedview13"
     showgrid="false"
     inkscape:zoom="1.668772"
     inkscape:cx="91.21067"
     inkscape:cy="12.5"
     inkscape:window-x="0"
     inkscape:window-y="27"
     inkscape:window-maximized="1"
     inkscape:current-layer="svg11" />
  <!-- Generator: Sketch 3.3.3 (12081) - http://www.bohemiancoding.com/sketch -->
  <title
     id="title2">Shape</title>
  <desc
     id="desc4">Created with Sketch.</desc>
  <defs
     id="defs6" />
  <g
     id="g4496">
    <g
       id="D-LandingPages-Emergency"
       sketch:type="MSArtboardGroup"
       transform="translate(-875,-1495)"
       style="fill:#0099db;fill-rule:evenodd;stroke:none;stroke-width:1;fill-opacity:1">
      <path
         style="fill:#0099db;fill-opacity:1"
         d="m 880.02439,1505.0598 c 0,-5.0873 4.12407,-9.2114 9.21137,-9.2114 5.0873,0 9.21138,4.1241 9.21138,9.2114 0,5.0873 -4.12408,9.2114 -9.21138,9.2114 -1.684,0 -3.26245,-0.4519 -4.62074,-1.2411 l -6.26543,6.2655 c -1.84992,0 -3.34959,-1.4997 -3.34959,-3.3496 l 6.26543,-6.2654 c -0.78915,-1.3583 -1.24104,-2.9368 -1.24104,-4.6208 z m 15.07316,0 c 0,-3.2374 -2.62441,-5.8618 -5.86179,-5.8618 -3.23737,0 -5.86178,2.6244 -5.86178,5.8618 0,3.2374 2.62441,5.8618 5.86178,5.8618 3.23738,0 5.86179,-2.6244 5.86179,-5.8618 z"
         id="Shape"
         sketch:type="MSShapeGroup"
         inkscape:connector-curvature="0" />
    </g>
  </g>
</svg>
