<?xml version="1.0" encoding="utf-8"?>
<!-- Generator: Adobe Illustrator 21.1.0, SVG Export Plug-In . SVG Version: 6.00 Build 0)  -->
<svg version="1.1" id="Layer_1" xmlns="http://www.w3.org/2000/svg" xmlns:xlink="http://www.w3.org/1999/xlink" x="0px" y="0px"
	 viewBox="0 0 506 651" style="enable-background:new 0 0 506 651;" xml:space="preserve">
<style type="text/css">
	.st0{clip-path:url(#SVGID_2_);fill:url(#SVGID_3_);}
	.st1{clip-path:url(#SVGID_5_);fill:url(#SVGID_6_);}
	.st2{clip-path:url(#SVGID_8_);fill:url(#SVGID_9_);}
	.st3{clip-path:url(#SVGID_11_);fill:url(#SVGID_12_);}
	.st4{clip-path:url(#SVGID_14_);fill:url(#SVGID_15_);}
	.st5{clip-path:url(#SVGID_17_);fill:url(#SVGID_18_);}
</style>
<g>
	<g>
		<defs>
			<path id="SVGID_1_" d="M345.6,81.3c-9.6,1.5-18.5,4.5-26.7,8.7c-36.3,18.4-57.1,59.7-46.4,100.6
				c35.2,92.5,106.3,223.9-81.9,417.6c42.4-34.2,78.2-66.7,108.4-97.4c188.8-191.9,159.1-314.9,148.4-359
				c-16.2-38.3-48.6-71.4-89.4-71.4C354,80.3,349.8,80.6,345.6,81.3"/>
		</defs>
		<clipPath id="SVGID_2_">
			<use xlink:href="#SVGID_1_"  style="overflow:visible;"/>
		</clipPath>
		
			<linearGradient id="SVGID_3_" gradientUnits="userSpaceOnUse" x1="-48.9748" y1="864.1489" x2="-44.7132" y2="864.1489" gradientTransform="matrix(87.6365 -31.8971 31.8971 87.6365 -23148.6543 -76870.3672)">
			<stop  offset="0" style="stop-color:#FFDD00"/>
			<stop  offset="0.4808" style="stop-color:#F6921E"/>
			<stop  offset="1" style="stop-color:#90278E"/>
		</linearGradient>
		<polygon class="st0" points="225.4,703.6 657.5,546.3 453.1,-15.3 21,142 		"/>
	</g>
	<g>
		<defs>
			<path id="SVGID_4_" d="M275.4,202c16.5,47.9,31.9,95.7,34.8,144.5c3.7,48.6-7.7,97.3-30.6,140.9c-22.7,43.9-54.8,83.1-88.9,120.6
				c70.3-53.5,190-171.2,137-340.3c-7.7-24.6-17.2-48.3-25.7-72c-19.4-54.4-17.4-75.7-0.1-94.6C273.1,124.9,261.5,161.5,275.4,202"
				/>
		</defs>
		<clipPath id="SVGID_5_">
			<use xlink:href="#SVGID_4_"  style="overflow:visible;"/>
		</clipPath>
		
			<linearGradient id="SVGID_6_" gradientUnits="userSpaceOnUse" x1="-47.6723" y1="862.7716" x2="-43.4107" y2="862.7716" gradientTransform="matrix(61.2603 -22.2969 22.2969 61.2603 -16196.4316 -53501.7305)">
			<stop  offset="0" style="stop-color:#FFDD00"/>
			<stop  offset="0.4808" style="stop-color:#F6921E"/>
			<stop  offset="1" style="stop-color:#90278E"/>
		</linearGradient>
		<polygon class="st1" points="212.9,669.2 543.6,548.8 358.4,40.1 27.7,160.5 		"/>
	</g>
	<g>
		<defs>
			<path id="SVGID_7_" d="M316.1,91.4c50.6-8.7,85.9,8.5,104.7,60.1c26.3,72.4,16.9,181.2-116.1,353.4
				c154.6-158,169.5-281.2,138.5-366.3C428.4,97.6,393.1,80,359.9,80C344,80,328.6,84,316.1,91.4"/>
		</defs>
		<clipPath id="SVGID_8_">
			<use xlink:href="#SVGID_7_"  style="overflow:visible;"/>
		</clipPath>
		
			<linearGradient id="SVGID_9_" gradientUnits="userSpaceOnUse" x1="-45.473" y1="862.0404" x2="-41.2115" y2="862.0404" gradientTransform="matrix(56.3291 -20.5021 20.5021 56.3291 -14865.7832 -49145.7969)">
			<stop  offset="0" style="stop-color:#FFDD00"/>
			<stop  offset="0.4808" style="stop-color:#F6921E"/>
			<stop  offset="1" style="stop-color:#90278E"/>
		</linearGradient>
		<polygon class="st2" points="324.6,559.3 610.8,455.1 454.4,25.5 168.2,129.7 		"/>
	</g>
</g>
<g>
	<g>
		<defs>
			<path id="SVGID_10_" d="M43.6,151.7C32.9,195.8,3.2,318.8,192,510.7c30.2,30.7,66,63.2,108.4,97.4
				c-188.2-193.7-117-325.1-81.9-417.6c10.7-40.8-10.1-82.2-46.4-100.6c-8.2-4.1-17.1-7.1-26.7-8.7c-4.2-0.7-8.4-1-12.5-1
				C92.1,80.3,59.8,113.3,43.6,151.7"/>
		</defs>
		<clipPath id="SVGID_11_">
			<use xlink:href="#SVGID_10_"  style="overflow:visible;"/>
		</clipPath>
		
			<linearGradient id="SVGID_12_" gradientUnits="userSpaceOnUse" x1="-53.9725" y1="862.3298" x2="-49.7109" y2="862.3298" gradientTransform="matrix(-87.6365 -31.8971 -31.8971 87.6365 23143.6797 -76870.3672)">
			<stop  offset="0" style="stop-color:#FFDD00"/>
			<stop  offset="0.4808" style="stop-color:#F6921E"/>
			<stop  offset="1" style="stop-color:#90278E"/>
		</linearGradient>
		<polygon class="st3" points="265.6,703.6 -166.5,546.3 37.9,-15.3 470,142 		"/>
	</g>
	<g>
		<defs>
			<path id="SVGID_13_" d="M189.1,195.8c-8.5,23.7-18,47.4-25.7,72c-53.1,169.1,66.7,286.8,137,340.3
				c-34.1-37.5-66.2-76.7-88.9-120.6c-23-43.7-34.3-92.4-30.6-140.9c2.8-48.8,18.3-96.6,34.8-144.5c13.9-40.5,2.3-77.1-26.4-100.8
				C206.6,120,208.6,141.4,189.1,195.8"/>
		</defs>
		<clipPath id="SVGID_14_">
			<use xlink:href="#SVGID_13_"  style="overflow:visible;"/>
		</clipPath>
		
			<linearGradient id="SVGID_15_" gradientUnits="userSpaceOnUse" x1="-54.8218" y1="860.1694" x2="-50.5602" y2="860.1694" gradientTransform="matrix(-61.2603 -22.2969 -22.2969 61.2603 16191.4561 -53501.7305)">
			<stop  offset="0" style="stop-color:#FFDD00"/>
			<stop  offset="0.4808" style="stop-color:#F6921E"/>
			<stop  offset="1" style="stop-color:#90278E"/>
		</linearGradient>
		<polygon class="st4" points="278.2,669.2 -52.6,548.8 132.6,40.1 463.3,160.5 		"/>
	</g>
	<g>
		<defs>
			<path id="SVGID_16_" d="M47.7,138.5c-31,85-16,208.3,138.5,366.3C53.3,332.7,43.8,223.8,70.2,151.5
				C89,99.9,124.3,82.7,174.9,91.4C162.4,84,147,80,131.1,80C97.9,80,62.6,97.6,47.7,138.5"/>
		</defs>
		<clipPath id="SVGID_17_">
			<use xlink:href="#SVGID_16_"  style="overflow:visible;"/>
		</clipPath>
		
			<linearGradient id="SVGID_18_" gradientUnits="userSpaceOnUse" x1="-53.2484" y1="859.2104" x2="-48.9868" y2="859.2104" gradientTransform="matrix(-56.3291 -20.5021 -20.5021 56.3291 14860.8076 -49145.7969)">
			<stop  offset="0" style="stop-color:#FFDD00"/>
			<stop  offset="0.4808" style="stop-color:#F6921E"/>
			<stop  offset="1" style="stop-color:#90278E"/>
		</linearGradient>
		<polygon class="st5" points="166.4,559.3 -119.8,455.1 36.6,25.5 322.8,129.7 		"/>
	</g>
</g>
</svg>
